<?xml version="1.0" encoding="UTF-8" standalone="no"?>
<!DOCTYPE svg PUBLIC "-//W3C//DTD SVG 1.1//EN" "http://www.w3.org/Graphics/SVG/1.1/DTD/svg11.dtd">
<svg xmlns="http://www.w3.org/2000/svg" version="1.1" viewBox="0.00 0.00 500.00 500.00">
<g stroke-width="2.00" fill="none" stroke-linecap="butt">
<path stroke="#7f6e31" vector-effect="non-scaling-stroke" d="
  M 285.54 205.97
  C 285.55 205.85 285.87 205.42 285.97 205.38
  Q 307.52 195.32 317.32 173.55
  Q 317.54 173.07 318.06 173.16
  C 330.07 175.22 349.04 176.74 354.00 162.48
  Q 354.16 162.04 353.83 161.70
  Q 351.35 159.09 351.45 155.52
  Q 351.47 154.98 351.09 154.59
  C 343.92 147.19 339.70 138.98 327.43 137.57
  Q 326.84 137.50 327.02 136.93
  C 336.50 107.65 332.90 76.65 307.15 56.87
  A 0.43 0.43 0.0 0 0 306.49 57.05
  Q 299.31 74.56 301.47 93.45
  A 1.97 1.95 22.9 0 0 301.89 94.47
  Q 316.34 112.52 319.73 135.50
  Q 319.96 137.03 319.58 138.11
  A 0.75 0.74 45.8 0 1 318.17 138.09
  Q 316.78 133.83 315.41 129.51
  C 305.70 98.94 284.93 77.91 254.04 68.58
  A 0.52 0.52 0.0 0 0 253.38 69.15
  Q 256.03 87.32 264.55 102.89
  A 0.11 0.11 0.0 0 0 264.75 102.81
  Q 262.00 92.78 261.96 82.73
  A 0.84 0.83 -81.3 0 1 263.04 81.93
  Q 303.00 94.15 312.65 135.02
  A 0.77 0.77 0.0 0 1 311.18 135.47
  C 302.52 112.20 290.38 96.06 266.46 87.30
  A 0.34 0.33 7.4 0 0 266.01 87.64
  C 268.26 114.39 287.14 133.11 311.01 141.89
  A 0.54 0.54 0.0 0 1 311.21 142.78
  Q 304.59 149.46 304.27 158.95
  Q 304.25 159.43 303.82 159.65
  C 291.70 165.82 278.55 163.21 266.01 161.23
  C 257.36 159.87 250.39 159.55 242.76 160.99
  C 221.12 165.06 202.48 186.20 209.67 208.90
  C 214.98 225.65 231.78 236.64 242.90 246.08
  Q 248.89 251.17 247.89 258.15
  A 1.71 1.66 73.4 0 1 247.39 259.11
  C 245.11 261.25 234.43 267.00 239.96 270.55
  C 248.98 276.35 256.34 282.62 258.35 293.89
  Q 258.46 294.51 259.08 294.41
  Q 259.53 294.34 259.92 293.68
  C 265.24 284.58 260.18 274.77 252.29 268.68
  C 248.60 265.83 252.68 261.66 255.40 259.89
  C 261.91 255.67 267.65 251.92 268.05 243.24
  C 268.89 224.94 256.25 207.45 241.20 198.90
  A 0.71 0.71 0.0 0 1 241.80 197.61
  Q 253.54 201.99 262.46 210.74
  Q 262.91 211.19 263.19 210.62
  Q 271.75 192.99 289.83 185.41
  A 0.14 0.14 0.0 0 1 289.98 185.64
  C 281.55 193.23 275.69 198.07 271.71 209.61
  C 270.89 212.00 269.05 219.91 273.43 219.65
  C 280.08 219.26 287.37 215.30 293.54 212.59
  C 300.82 209.39 307.98 209.60 310.81 217.97
  A 1.14 1.13 -28.2 0 0 312.58 218.50
  Q 317.72 214.55 315.13 209.82
  C 312.16 204.37 302.19 203.21 296.74 203.57
  C 293.20 203.80 289.37 205.12 285.75 206.14
  Q 285.52 206.20 285.54 205.97"
/>
<path stroke="#7f6e31" vector-effect="non-scaling-stroke" d="
  M 196.31 178.94
  C 190.58 174.52 183.25 171.53 176.63 174.73
  Q 176.15 174.96 175.91 175.43
  Q 174.85 177.57 174.91 180.01
  C 175.24 194.55 187.42 203.90 201.72 200.59
  A 0.58 0.57 81.3 0 0 202.16 199.98
  Q 201.73 194.19 201.42 188.21
  C 201.17 183.32 199.94 181.74 196.31 178.94"
/>
<path stroke="#7f6e31" vector-effect="non-scaling-stroke" d="
  M 337.12 152.59
  C 335.15 147.95 323.74 147.36 324.77 152.51
  Q 324.88 153.07 325.45 152.99
  Q 330.99 152.21 336.41 153.44
  A 0.62 0.62 0.0 0 0 337.12 152.59"
/>
</g>
<path fill="#000000" d="
  M 140.46 343.30
  A 0.50 0.50 0.0 0 0 140.53 342.33
  C 117.68 335.29 101.05 312.84 106.41 288.16
  C 114.33 251.69 158.69 238.13 185.28 264.55
  A 1.80 1.80 0.0 0 0 187.72 264.64
  Q 198.74 255.28 209.57 246.07
  C 210.61 245.20 210.92 244.28 210.64 242.88
  C 209.73 238.34 208.68 229.23 206.13 225.59
  Q 205.80 225.12 205.22 225.11
  C 201.55 225.05 192.77 225.43 190.20 222.74
  C 187.92 220.35 188.92 216.83 191.54 215.01
  Q 196.33 211.69 202.55 212.36
  A 1.87 1.87 0.0 0 0 204.60 210.24
  L 203.99 206.03
  A 1.96 1.96 0.0 0 0 201.62 204.39
  C 183.48 208.40 168.50 194.29 171.21 175.73
  C 171.67 172.55 173.62 171.32 176.71 170.65
  Q 193.07 167.06 204.75 178.41
  A 1.41 1.40 42.1 0 0 206.81 178.31
  C 221.79 160.30 241.27 154.51 264.19 157.54
  Q 272.86 158.69 281.58 159.48
  C 284.76 159.77 300.55 159.80 301.75 155.14
  Q 303.09 149.95 305.32 145.16
  A 2.19 2.18 -65.1 0 0 304.26 142.25
  C 292.17 136.67 280.25 129.27 271.47 119.37
  Q 250.62 95.86 248.13 63.23
  Q 248.08 62.60 248.71 62.53
  Q 250.01 62.39 251.59 62.89
  Q 276.30 70.63 295.41 88.09
  Q 295.87 88.51 296.27 88.51
  A 0.88 0.87 87.9 0 0 297.15 87.56
  C 296.11 75.73 299.66 62.64 304.68 52.03
  A 1.49 1.49 0.0 0 1 307.01 51.55
  Q 344.66 84.36 330.83 133.72
  A 1.66 1.65 20.6 0 0 331.71 135.65
  C 336.58 137.99 340.12 140.24 344.40 144.29
  Q 348.90 148.57 356.09 154.17
  C 359.50 156.83 357.15 162.95 355.06 166.07
  C 351.44 171.46 347.21 175.36 340.56 176.58
  Q 331.38 178.27 324.25 177.75
  C 321.47 177.54 320.34 177.71 318.97 180.32
  Q 313.47 190.73 304.00 198.31
  A 1.61 1.61 0.0 0 0 304.93 201.18
  C 311.02 201.47 318.39 205.57 319.06 212.24
  C 319.62 217.78 315.08 224.15 308.84 220.82
  A 0.84 0.82 -45.7 0 0 308.04 220.84
  Q 304.07 223.11 303.43 225.97
  Q 300.35 239.69 302.66 253.37
  A 1.32 1.31 75.2 0 0 304.41 254.39
  C 338.81 241.59 374.74 270.43 366.95 306.91
  C 363.57 322.75 352.84 335.13 337.82 341.34
  Q 337.00 341.68 336.40 342.20
  A 0.58 0.58 0.0 0 0 336.77 343.21
  C 358.92 343.72 380.92 342.81 403.06 344.19
  C 417.25 345.08 437.23 349.75 432.37 369.18
  C 431.18 373.90 424.73 376.50 422.33 371.64
  A 1.09 1.08 -46.3 0 1 422.31 370.73
  C 426.91 360.16 422.48 355.43 412.08 353.93
  Q 402.80 352.60 393.44 352.79
  C 357.46 353.55 321.44 352.39 285.47 353.07
  Q 284.91 353.08 284.77 353.63
  Q 284.39 355.20 283.80 358.26
  Q 277.89 388.57 275.02 412.66
  C 274.58 416.40 273.27 418.04 269.49 418.22
  C 260.83 418.65 263.88 408.70 264.58 404.01
  Q 268.36 378.90 273.25 354.09
  A 0.88 0.88 0.0 0 0 272.42 353.04
  C 263.26 352.71 244.00 353.69 250.19 368.97
  Q 251.83 373.03 247.47 374.24
  C 243.38 375.37 241.20 371.78 240.43 368.52
  C 236.10 350.15 254.97 345.19 268.45 344.22
  Q 286.95 342.88 306.39 343.60
  A 0.81 0.81 0.0 0 0 306.80 342.07
  C 304.37 340.76 301.36 339.78 299.18 338.49
  C 270.15 321.35 266.42 282.58 293.14 261.15
  Q 294.82 259.81 296.48 258.41
  A 1.12 1.11 67.0 0 0 296.88 257.40
  L 295.85 248.82
  A 1.52 1.51 71.1 0 0 293.57 247.70
  Q 276.39 258.00 260.70 270.45
  A 1.91 1.91 0.0 0 0 260.33 273.06
  C 263.31 277.25 265.45 282.55 265.03 287.61
  C 264.78 290.68 262.11 300.56 256.89 297.44
  Q 255.20 296.43 255.21 294.75
  Q 255.25 289.01 251.46 284.44
  A 1.53 1.52 -51.8 0 0 248.91 284.75
  C 246.16 290.45 240.02 283.95 238.02 290.94
  A 1.25 1.22 -51.8 0 0 238.12 291.87
  C 243.42 301.50 236.06 312.80 225.49 312.04
  C 217.65 311.48 215.07 306.92 212.29 300.63
  A 0.99 0.98 -11.0 0 0 211.40 300.04
  L 199.28 299.99
  A 0.79 0.78 -86.7 0 0 198.50 300.69
  C 196.09 322.16 183.89 334.65 164.62 342.27
  A 0.67 0.67 0.0 0 0 164.87 343.56
  L 240.49 343.16
  Q 242.96 343.15 241.03 344.70
  Q 236.94 347.99 233.99 352.36
  A 1.18 1.16 -72.5 0 1 233.03 352.87
  Q 187.99 353.10 143.03 352.98
  C 134.73 352.96 121.88 352.53 111.30 353.12
  A 0.95 0.94 -88.9 0 0 110.42 353.97
  L 108.16 377.22
  A 1.00 0.99 2.0 0 0 109.18 378.31
  Q 117.42 378.14 125.44 378.00
  C 130.11 377.92 129.71 384.22 126.79 386.07
  C 123.55 388.11 112.65 387.32 108.74 387.20
  A 2.02 2.01 -80.7 0 0 106.76 388.63
  Q 106.08 390.88 105.97 393.74
  Q 105.78 398.31 102.35 406.58
  C 96.90 419.72 79.51 421.34 68.63 414.10
  C 64.93 411.64 61.29 406.99 64.29 403.11
  A 2.50 2.49 -47.8 0 1 68.08 402.92
  C 70.35 405.32 72.57 408.32 75.49 409.72
  C 90.54 416.89 95.65 398.94 95.49 388.49
  A 1.27 1.27 0.0 0 0 94.20 387.24
  C 92.24 387.28 89.39 387.64 87.85 386.45
  C 85.82 384.89 86.11 381.06 88.14 379.52
  C 89.75 378.30 93.24 378.74 95.20 378.75
  Q 96.92 378.77 97.09 377.06
  L 99.31 354.97
  A 1.54 1.54 0.0 0 0 97.77 353.28
  C 87.24 353.33 75.96 356.90 82.09 370.46
  A 2.19 2.18 64.5 0 1 81.08 373.32
  C 77.29 375.21 73.67 373.96 72.24 369.85
  C 68.37 358.78 74.86 350.84 85.08 347.34
  C 100.01 342.23 118.20 343.70 134.18 343.74
  Q 137.45 343.75 140.46 343.30
  Z
  M 285.54 205.97
  C 285.55 205.85 285.87 205.42 285.97 205.38
  Q 307.52 195.32 317.32 173.55
  Q 317.54 173.07 318.06 173.16
  C 330.07 175.22 349.04 176.74 354.00 162.48
  Q 354.16 162.04 353.83 161.70
  Q 351.35 159.09 351.45 155.52
  Q 351.47 154.98 351.09 154.59
  C 343.92 147.19 339.70 138.98 327.43 137.57
  Q 326.84 137.50 327.02 136.93
  C 336.50 107.65 332.90 76.65 307.15 56.87
  A 0.43 0.43 0.0 0 0 306.49 57.05
  Q 299.31 74.56 301.47 93.45
  A 1.97 1.95 22.9 0 0 301.89 94.47
  Q 316.34 112.52 319.73 135.50
  Q 319.96 137.03 319.58 138.11
  A 0.75 0.74 45.8 0 1 318.17 138.09
  Q 316.78 133.83 315.41 129.51
  C 305.70 98.94 284.93 77.91 254.04 68.58
  A 0.52 0.52 0.0 0 0 253.38 69.15
  Q 256.03 87.32 264.55 102.89
  A 0.11 0.11 0.0 0 0 264.75 102.81
  Q 262.00 92.78 261.96 82.73
  A 0.84 0.83 -81.3 0 1 263.04 81.93
  Q 303.00 94.15 312.65 135.02
  A 0.77 0.77 0.0 0 1 311.18 135.47
  C 302.52 112.20 290.38 96.06 266.46 87.30
  A 0.34 0.33 7.4 0 0 266.01 87.64
  C 268.26 114.39 287.14 133.11 311.01 141.89
  A 0.54 0.54 0.0 0 1 311.21 142.78
  Q 304.59 149.46 304.27 158.95
  Q 304.25 159.43 303.82 159.65
  C 291.70 165.82 278.55 163.21 266.01 161.23
  C 257.36 159.87 250.39 159.55 242.76 160.99
  C 221.12 165.06 202.48 186.20 209.67 208.90
  C 214.98 225.65 231.78 236.64 242.90 246.08
  Q 248.89 251.17 247.89 258.15
  A 1.71 1.66 73.4 0 1 247.39 259.11
  C 245.11 261.25 234.43 267.00 239.96 270.55
  C 248.98 276.35 256.34 282.62 258.35 293.89
  Q 258.46 294.51 259.08 294.41
  Q 259.53 294.34 259.92 293.68
  C 265.24 284.58 260.18 274.77 252.29 268.68
  C 248.60 265.83 252.68 261.66 255.40 259.89
  C 261.91 255.67 267.65 251.92 268.05 243.24
  C 268.89 224.94 256.25 207.45 241.20 198.90
  A 0.71 0.71 0.0 0 1 241.80 197.61
  Q 253.54 201.99 262.46 210.74
  Q 262.91 211.19 263.19 210.62
  Q 271.75 192.99 289.83 185.41
  A 0.14 0.14 0.0 0 1 289.98 185.64
  C 281.55 193.23 275.69 198.07 271.71 209.61
  C 270.89 212.00 269.05 219.91 273.43 219.65
  C 280.08 219.26 287.37 215.30 293.54 212.59
  C 300.82 209.39 307.98 209.60 310.81 217.97
  A 1.14 1.13 -28.2 0 0 312.58 218.50
  Q 317.72 214.55 315.13 209.82
  C 312.16 204.37 302.19 203.21 296.74 203.57
  C 293.20 203.80 289.37 205.12 285.75 206.14
  Q 285.52 206.20 285.54 205.97
  Z
  M 196.31 178.94
  C 190.58 174.52 183.25 171.53 176.63 174.73
  Q 176.15 174.96 175.91 175.43
  Q 174.85 177.57 174.91 180.01
  C 175.24 194.55 187.42 203.90 201.72 200.59
  A 0.58 0.57 81.3 0 0 202.16 199.98
  Q 201.73 194.19 201.42 188.21
  C 201.17 183.32 199.94 181.74 196.31 178.94
  Z
  M 296.62 226.69
  C 298.37 222.54 297.12 220.28 297.41 216.41
  A 1.44 1.44 0.0 0 0 295.27 215.05
  C 288.04 219.13 280.23 223.84 271.81 224.18
  A 1.21 1.20 79.6 0 0 270.72 225.77
  L 272.26 230.42
  A 1.70 1.70 0.0 0 0 274.19 231.55
  L 295.55 227.55
  A 1.48 1.44 5.6 0 0 296.62 226.69
  Z
  M 225.58 237.32
  Q 220.43 233.39 215.54 229.25
  A 0.93 0.93 0.0 0 0 214.03 230.19
  L 216.69 240.80
  A 1.57 1.57 0.0 0 0 218.48 241.97
  L 226.21 240.65
  A 1.44 1.43 5.4 0 0 227.31 239.75
  C 227.79 238.49 226.31 237.88 225.58 237.32
  Z
  M 273.13 236.69
  C 272.69 251.91 268.74 254.75 257.21 262.45
  Q 254.75 264.09 255.02 266.57
  A 1.79 1.78 -22.2 0 0 257.90 267.78
  Q 274.79 254.44 293.58 243.09
  Q 294.33 242.64 294.90 241.97
  A 1.40 1.39 -24.9 0 0 295.23 241.07
  C 295.23 238.70 297.29 231.30 293.26 232.03
  Q 284.25 233.68 274.25 235.40
  A 1.35 1.34 86.1 0 0 273.13 236.69
  Z
  M 240.77 259.76
  C 246.70 254.08 240.20 246.40 234.30 243.65
  C 230.98 242.10 222.32 245.13 218.72 246.09
  A 1.05 1.05 0.0 0 0 217.97 247.33
  Q 221.85 264.93 225.94 282.31
  C 226.32 283.92 226.37 284.53 228.21 284.89
  C 230.19 285.29 233.22 287.00 234.86 286.69
  C 237.45 286.22 238.87 282.98 239.13 280.68
  A 1.63 1.61 68.7 0 1 239.52 279.77
  L 241.98 276.93
  A 0.92 0.92 0.0 0 0 241.71 275.52
  C 237.70 273.37 233.14 270.10 235.60 264.89
  C 236.54 262.90 239.06 261.40 240.77 259.76
  Z
  M 199.91 296.00
  L 211.53 296.00
  A 1.43 1.42 9.0 0 0 212.89 295.02
  Q 214.58 289.92 218.94 286.79
  A 2.60 2.59 -24.6 0 0 219.96 284.07
  Q 216.65 270.23 213.59 256.08
  Q 212.96 253.18 211.97 250.62
  A 0.80 0.79 -30.6 0 0 210.71 250.30
  L 190.17 267.59
  A 1.62 1.61 53.1 0 0 189.87 269.73
  Q 197.50 281.06 198.59 294.77
  A 1.33 1.33 0.0 0 0 199.91 296.00
  Z
  M 114.35 296.36
  C 113.75 318.66 132.76 336.21 155.18 334.56
  C 173.67 333.21 187.83 319.30 189.68 301.04
  A 1.23 1.23 0.0 0 0 188.48 299.68
  L 158.60 299.13
  Q 157.97 299.12 157.48 299.50
  C 156.25 300.43 155.25 301.56 153.84 301.99
  C 145.09 304.67 144.00 290.29 153.01 291.91
  C 154.10 292.10 155.45 291.71 156.31 290.99
  Q 167.30 281.77 178.18 272.40
  Q 179.96 270.87 178.06 269.16
  C 153.64 247.22 115.25 263.04 114.35 296.36
  Z
  M 321.01 291.56
  C 322.99 292.33 325.08 293.15 326.12 295.03
  C 327.99 298.42 326.17 302.03 322.49 302.79
  C 316.16 304.08 317.28 297.87 315.11 294.87
  Q 305.90 282.15 300.27 267.91
  A 1.15 1.15 0.0 0 0 298.46 267.45
  Q 283.52 279.78 283.79 298.17
  C 284.36 337.20 337.26 349.27 354.92 315.30
  C 371.49 283.45 339.68 249.14 306.61 262.61
  A 1.70 1.69 -21.2 0 0 305.65 264.76
  Q 310.88 279.06 320.29 291.03
  A 1.68 1.61 80.0 0 0 321.01 291.56
  Z
  M 159.59 294.82
  C 160.26 295.73 186.03 295.79 188.83 295.76
  A 0.93 0.93 0.0 0 0 189.75 294.81
  Q 189.46 284.29 183.47 275.71
  A 1.83 1.82 52.4 0 0 180.79 275.36
  L 159.67 293.40
  A 1.11 0.98 51.8 0 0 159.59 294.82
  Z
  M 230.3879 291.0114
  A 1.24 1.06 3.3 0 0 229.2110 289.8818
  A 1.24 1.06 3.3 0 0 227.9121 290.8686
  A 1.24 1.06 3.3 0 0 229.0890 291.9982
  A 1.24 1.06 3.3 0 0 230.3879 291.0114
  Z
  M 218.12 295.90
  L 220.72 296.32
  A 0.75 0.75 0.0 0 0 221.58 295.70
  L 221.63 295.45
  A 3.81 1.99 -80.7 0 0 220.28 291.36
  L 220.12 291.34
  A 3.81 1.99 -80.7 0 0 217.54 294.78
  L 217.50 295.03
  A 0.75 0.75 0.0 0 0 218.12 295.90
  Z
  M 217.33 301.26
  C 219.26 312.48 238.84 308.81 235.37 295.41
  A 1.45 1.45 0.0 0 0 233.03 294.67
  Q 230.44 296.89 228.94 299.96
  A 2.92 2.92 0.0 0 1 225.14 301.35
  Q 221.63 299.80 217.84 300.53
  A 0.64 0.63 -10.6 0 0 217.33 301.26
  Z"
/>
<path fill="#fedb62" d="
  M 285.75 206.14
  C 289.37 205.12 293.20 203.80 296.74 203.57
  C 302.19 203.21 312.16 204.37 315.13 209.82
  Q 317.72 214.55 312.58 218.50
  A 1.14 1.13 -28.2 0 1 310.81 217.97
  C 307.98 209.60 300.82 209.39 293.54 212.59
  C 287.37 215.30 280.08 219.26 273.43 219.65
  C 269.05 219.91 270.89 212.00 271.71 209.61
  C 275.69 198.07 281.55 193.23 289.98 185.64
  A 0.14 0.14 0.0 0 0 289.83 185.41
  Q 271.75 192.99 263.19 210.62
  Q 262.91 211.19 262.46 210.74
  Q 253.54 201.99 241.80 197.61
  A 0.71 0.71 0.0 0 0 241.20 198.90
  C 256.25 207.45 268.89 224.94 268.05 243.24
  C 267.65 251.92 261.91 255.67 255.40 259.89
  C 252.68 261.66 248.60 265.83 252.29 268.68
  C 260.18 274.77 265.24 284.58 259.92 293.68
  Q 259.53 294.34 259.08 294.41
  Q 258.46 294.51 258.35 293.89
  C 256.34 282.62 248.98 276.35 239.96 270.55
  C 234.43 267.00 245.11 261.25 247.39 259.11
  A 1.71 1.66 73.4 0 0 247.89 258.15
  Q 248.89 251.17 242.90 246.08
  C 231.78 236.64 214.98 225.65 209.67 208.90
  C 202.48 186.20 221.12 165.06 242.76 160.99
  C 250.39 159.55 257.36 159.87 266.01 161.23
  C 278.55 163.21 291.70 165.82 303.82 159.65
  Q 304.25 159.43 304.27 158.95
  Q 304.59 149.46 311.21 142.78
  A 0.54 0.54 0.0 0 0 311.01 141.89
  C 287.14 133.11 268.26 114.39 266.01 87.64
  A 0.34 0.33 7.4 0 1 266.46 87.30
  C 290.38 96.06 302.52 112.20 311.18 135.47
  A 0.77 0.77 0.0 0 0 312.65 135.02
  Q 303.00 94.15 263.04 81.93
  A 0.84 0.83 -81.3 0 0 261.96 82.73
  Q 262.00 92.78 264.75 102.81
  A 0.11 0.11 0.0 0 1 264.55 102.89
  Q 256.03 87.32 253.38 69.15
  A 0.52 0.52 0.0 0 1 254.04 68.58
  C 284.93 77.91 305.70 98.94 315.41 129.51
  Q 316.78 133.83 318.17 138.09
  A 0.75 0.74 45.8 0 0 319.58 138.11
  Q 319.96 137.03 319.73 135.50
  Q 316.34 112.52 301.89 94.47
  A 1.97 1.95 22.9 0 1 301.47 93.45
  Q 299.31 74.56 306.49 57.05
  A 0.43 0.43 0.0 0 1 307.15 56.87
  C 332.90 76.65 336.50 107.65 327.02 136.93
  Q 326.84 137.50 327.43 137.57
  C 339.70 138.98 343.92 147.19 351.09 154.59
  Q 351.47 154.98 351.45 155.52
  Q 351.35 159.09 353.83 161.70
  Q 354.16 162.04 354.00 162.48
  C 349.04 176.74 330.07 175.22 318.06 173.16
  Q 317.54 173.07 317.32 173.55
  Q 307.52 195.32 285.97 205.38
  C 285.87 205.42 285.55 205.85 285.54 205.97
  Q 285.52 206.20 285.75 206.14
  Z
  M 337.12 152.59
  C 335.15 147.95 323.74 147.36 324.77 152.51
  Q 324.88 153.07 325.45 152.99
  Q 330.99 152.21 336.41 153.44
  A 0.62 0.62 0.0 0 0 337.12 152.59
  Z"
/>
<path fill="#000000" d="
  M 324.77 152.51
  C 323.74 147.36 335.15 147.95 337.12 152.59
  A 0.62 0.62 0.0 0 1 336.41 153.44
  Q 330.99 152.21 325.45 152.99
  Q 324.88 153.07 324.77 152.51
  Z"
/>
<path fill="#fedb62" d="
  M 196.31 178.94
  C 199.94 181.74 201.17 183.32 201.42 188.21
  Q 201.73 194.19 202.16 199.98
  A 0.58 0.57 81.3 0 1 201.72 200.59
  C 187.42 203.90 175.24 194.55 174.91 180.01
  Q 174.85 177.57 175.91 175.43
  Q 176.15 174.96 176.63 174.73
  C 183.25 171.53 190.58 174.52 196.31 178.94
  Z"
/>
<ellipse fill="#000000" cx="0.00" cy="0.00" transform="translate(306.78,363.87) rotate(-14.6)" rx="7.38" ry="6.21"/>
<path fill="#000000" d="
  M 173.80 403.80
  A 1.14 1.13 69.2 0 0 172.10 403.03
  C 167.29 405.92 159.26 406.43 156.67 400.30
  C 155.66 397.89 155.97 394.30 156.01 391.47
  A 0.91 0.90 -72.5 0 0 155.63 390.73
  C 149.84 386.73 142.80 409.29 141.99 413.50
  C 140.62 420.54 132.96 419.20 132.16 412.24
  Q 130.65 399.12 133.51 386.25
  C 134.59 381.42 136.67 375.92 143.10 377.97
  A 1.71 1.70 16.6 0 1 144.23 380.04
  C 142.82 385.20 140.24 393.46 140.77 398.79
  A 0.70 0.70 0.0 0 0 142.14 398.94
  C 144.90 390.43 151.23 379.28 160.73 377.75
  C 170.74 376.13 164.41 390.44 165.46 395.04
  Q 165.57 395.52 165.97 395.82
  C 169.91 398.80 174.00 393.90 175.22 390.64
  C 178.30 382.46 187.82 375.13 196.92 378.26
  C 202.63 380.22 205.03 386.88 203.03 392.28
  C 199.96 400.56 192.96 402.66 185.34 405.06
  A 1.38 1.38 0.0 0 0 184.74 407.31
  C 192.05 415.26 204.93 408.61 210.60 402.08
  Q 211.40 401.17 211.39 399.51
  C 211.34 387.36 220.72 375.37 233.76 378.01
  C 239.94 379.26 242.18 385.29 241.05 391.01
  C 239.30 399.89 230.94 402.90 223.18 405.11
  A 1.36 1.36 0.0 0 0 222.54 407.33
  C 230.05 415.61 243.14 407.97 248.90 401.41
  C 249.35 400.89 250.15 400.36 250.67 400.06
  A 1.85 1.85 0.0 0 1 253.44 401.40
  C 253.89 404.63 252.81 406.89 250.42 409.22
  C 240.39 419.02 222.54 422.87 213.44 409.89
  A 0.67 0.66 55.2 0 0 212.52 409.72
  C 209.23 411.92 205.78 414.58 202.55 415.96
  C 191.18 420.80 176.38 417.68 173.80 403.80
  Z
  M 184.00 399.63
  Q 189.91 398.90 193.94 394.17
  C 196.74 390.88 196.33 384.64 191.19 384.96
  C 185.13 385.34 182.60 393.77 182.81 398.63
  A 1.05 1.05 0.0 0 0 184.00 399.63
  Z
  M 233.46 390.44
  C 234.36 383.33 226.04 383.98 223.15 388.72
  Q 220.34 393.35 220.70 399.18
  A 0.63 0.62 -7.9 0 0 221.46 399.75
  C 225.98 398.75 232.81 395.53 233.46 390.44
  Z"
/>
<path fill="#000000" d="
  M 351.59 397.07
  A 0.75 0.75 0.0 0 0 353.01 397.54
  C 356.28 390.48 363.83 376.04 373.56 377.71
  C 383.70 379.45 369.00 405.41 375.14 409.49
  C 379.55 412.41 387.45 401.98 389.72 398.88
  Q 390.01 398.49 390.04 398.01
  Q 390.89 385.72 400.52 379.78
  C 405.93 376.44 416.31 376.48 419.11 383.64
  C 423.92 395.93 411.24 402.47 402.07 405.03
  A 1.73 1.73 0.0 0 0 401.46 408.05
  C 409.64 414.53 415.74 409.46 421.10 402.93
  A 1.67 1.67 0.0 0 1 424.02 403.63
  C 424.51 405.89 424.13 408.15 422.85 410.16
  C 416.15 420.70 396.92 421.60 391.70 408.82
  A 1.25 1.24 55.4 0 0 389.64 408.44
  C 384.52 413.92 379.48 418.99 371.29 417.87
  C 358.48 416.13 367.95 398.26 366.31 391.17
  A 1.67 1.67 0.0 0 0 363.51 390.35
  C 357.92 395.88 354.45 405.15 352.71 412.63
  C 352.02 415.58 350.90 418.08 347.70 418.04
  C 339.26 417.95 343.15 397.56 343.91 392.95
  A 2.52 2.51 37.4 0 0 343.71 391.47
  C 341.99 387.86 339.14 391.89 337.94 393.90
  Q 332.44 403.14 330.21 413.69
  C 329.50 417.08 325.61 419.75 322.59 417.14
  C 321.12 415.87 320.66 413.22 320.09 411.33
  A 1.09 1.09 0.0 0 0 318.19 410.98
  Q 314.61 415.61 309.15 417.42
  C 290.51 423.60 295.70 395.13 297.61 387.04
  C 298.98 381.22 299.29 376.51 306.30 377.86
  Q 308.44 378.27 308.07 380.73
  Q 306.46 391.17 304.58 401.57
  C 303.87 405.50 305.61 413.60 311.64 408.60
  C 315.12 405.72 319.82 401.48 320.20 396.85
  Q 320.80 389.51 323.00 382.52
  C 324.15 378.87 326.68 377.40 330.33 377.69
  C 332.78 377.87 332.87 379.23 332.31 381.27
  Q 329.96 389.84 328.94 398.02
  A 0.87 0.87 0.0 0 0 330.63 398.38
  C 332.91 390.76 341.02 375.89 350.68 377.90
  C 356.96 379.21 352.45 393.19 351.59 397.07
  Z
  M 410.65 393.56
  C 415.30 387.11 407.62 381.60 402.93 387.46
  Q 398.84 392.57 399.59 399.05
  A 0.57 0.57 0.0 0 0 400.23 399.56
  Q 406.92 398.73 410.65 393.56
  Z"
/>
</svg>
